<mxfile host="app.diagrams.net" modified="2024-05-03T12:46:53.834Z" agent="Mozilla/5.0 (Windows NT 10.0; Win64; x64) AppleWebKit/537.36 (KHTML, like Gecko) Chrome/124.0.0.0 Safari/537.36" etag="n8ZZNpNS9-ED40qH76Tt" version="24.3.1" type="device">
  <diagram id="C5RBs43oDa-KdzZeNtuy" name="Page-1">
    <mxGraphModel dx="1494" dy="399" grid="1" gridSize="10" guides="1" tooltips="1" connect="1" arrows="1" fold="1" page="1" pageScale="1" pageWidth="827" pageHeight="1169" math="0" shadow="0">
      <root>
        <mxCell id="WIyWlLk6GJQsqaUBKTNV-0" />
        <mxCell id="WIyWlLk6GJQsqaUBKTNV-1" parent="WIyWlLk6GJQsqaUBKTNV-0" />
        <mxCell id="7Fl_ec4HVdn68NrH_je4-18" value="Weapon" style="swimlane;fontStyle=0;childLayout=stackLayout;horizontal=1;startSize=26;fillColor=none;horizontalStack=0;resizeParent=1;resizeParentMax=0;resizeLast=0;collapsible=1;marginBottom=0;whiteSpace=wrap;html=1;" vertex="1" parent="WIyWlLk6GJQsqaUBKTNV-1">
          <mxGeometry x="348" y="659" width="160" height="406" as="geometry" />
        </mxCell>
        <mxCell id="7Fl_ec4HVdn68NrH_je4-10" value="Public" style="swimlane;fontStyle=0;childLayout=stackLayout;horizontal=1;startSize=26;fillColor=none;horizontalStack=0;resizeParent=1;resizeParentMax=0;resizeLast=0;collapsible=1;marginBottom=0;whiteSpace=wrap;html=1;" vertex="1" parent="7Fl_ec4HVdn68NrH_je4-18">
          <mxGeometry y="26" width="160" height="320" as="geometry">
            <mxRectangle y="26" width="160" height="30" as="alternateBounds" />
          </mxGeometry>
        </mxCell>
        <mxCell id="7Fl_ec4HVdn68NrH_je4-11" value="Controller con&lt;div&gt;string weaponName&lt;/div&gt;&lt;div&gt;WeaponState state&lt;/div&gt;&lt;div&gt;Sprite UI&lt;/div&gt;&lt;div&gt;&lt;br&gt;&lt;/div&gt;&lt;div&gt;float damage&lt;/div&gt;&lt;div&gt;float attackCooltime&lt;/div&gt;&lt;div&gt;int durability&lt;/div&gt;&lt;div&gt;int maxDurability&lt;/div&gt;&lt;div&gt;float attackFrontDelay&lt;/div&gt;&lt;div&gt;float attackDelay&lt;/div&gt;&lt;div&gt;float attackBackDelay&lt;/div&gt;&lt;div&gt;float specialFrontDelay&lt;/div&gt;&lt;div&gt;float specialDelay&lt;/div&gt;&lt;div&gt;float specialBackDelay&lt;/div&gt;&lt;div&gt;&lt;br&gt;&lt;/div&gt;&lt;div&gt;float attackMinDistance&lt;/div&gt;&lt;div&gt;float attackMaxDistance&lt;/div&gt;&lt;div&gt;&lt;br&gt;&lt;/div&gt;" style="text;strokeColor=none;fillColor=none;align=left;verticalAlign=top;spacingLeft=4;spacingRight=4;overflow=hidden;rotatable=0;points=[[0,0.5],[1,0.5]];portConstraint=eastwest;whiteSpace=wrap;html=1;" vertex="1" parent="7Fl_ec4HVdn68NrH_je4-10">
          <mxGeometry y="26" width="160" height="294" as="geometry" />
        </mxCell>
        <mxCell id="7Fl_ec4HVdn68NrH_je4-22" value="Protected" style="swimlane;fontStyle=0;childLayout=stackLayout;horizontal=1;startSize=26;fillColor=none;horizontalStack=0;resizeParent=1;resizeParentMax=0;resizeLast=0;collapsible=1;marginBottom=0;whiteSpace=wrap;html=1;" vertex="1" parent="7Fl_ec4HVdn68NrH_je4-18">
          <mxGeometry y="346" width="160" height="60" as="geometry">
            <mxRectangle y="56" width="160" height="30" as="alternateBounds" />
          </mxGeometry>
        </mxCell>
        <mxCell id="7Fl_ec4HVdn68NrH_je4-33" value="BreakParticle breakParticle" style="text;strokeColor=none;fillColor=none;align=left;verticalAlign=top;spacingLeft=4;spacingRight=4;overflow=hidden;rotatable=0;points=[[0,0.5],[1,0.5]];portConstraint=eastwest;whiteSpace=wrap;html=1;" vertex="1" parent="7Fl_ec4HVdn68NrH_je4-22">
          <mxGeometry y="26" width="160" height="34" as="geometry" />
        </mxCell>
        <mxCell id="7Fl_ec4HVdn68NrH_je4-26" value="Classname" style="swimlane;fontStyle=0;childLayout=stackLayout;horizontal=1;startSize=26;fillColor=none;horizontalStack=0;resizeParent=1;resizeParentMax=0;resizeLast=0;collapsible=1;marginBottom=0;whiteSpace=wrap;html=1;" vertex="1" parent="WIyWlLk6GJQsqaUBKTNV-1">
          <mxGeometry x="-827" width="160" height="196" as="geometry" />
        </mxCell>
        <mxCell id="7Fl_ec4HVdn68NrH_je4-27" value="Public" style="swimlane;fontStyle=0;childLayout=stackLayout;horizontal=1;startSize=26;fillColor=none;horizontalStack=0;resizeParent=1;resizeParentMax=0;resizeLast=0;collapsible=1;marginBottom=0;whiteSpace=wrap;html=1;" vertex="1" parent="7Fl_ec4HVdn68NrH_je4-26">
          <mxGeometry y="26" width="160" height="90" as="geometry" />
        </mxCell>
        <mxCell id="7Fl_ec4HVdn68NrH_je4-28" value="&lt;div&gt;&lt;br&gt;&lt;/div&gt;" style="text;strokeColor=none;fillColor=none;align=left;verticalAlign=top;spacingLeft=4;spacingRight=4;overflow=hidden;rotatable=0;points=[[0,0.5],[1,0.5]];portConstraint=eastwest;whiteSpace=wrap;html=1;" vertex="1" parent="7Fl_ec4HVdn68NrH_je4-27">
          <mxGeometry y="26" width="160" height="64" as="geometry" />
        </mxCell>
        <mxCell id="7Fl_ec4HVdn68NrH_je4-29" value="Protected" style="swimlane;fontStyle=0;childLayout=stackLayout;horizontal=1;startSize=26;fillColor=none;horizontalStack=0;resizeParent=1;resizeParentMax=0;resizeLast=0;collapsible=1;marginBottom=0;whiteSpace=wrap;html=1;" vertex="1" parent="7Fl_ec4HVdn68NrH_je4-26">
          <mxGeometry y="116" width="160" height="80" as="geometry" />
        </mxCell>
        <mxCell id="7Fl_ec4HVdn68NrH_je4-34" value="&lt;div&gt;&lt;br&gt;&lt;/div&gt;" style="text;strokeColor=none;fillColor=none;align=left;verticalAlign=top;spacingLeft=4;spacingRight=4;overflow=hidden;rotatable=0;points=[[0,0.5],[1,0.5]];portConstraint=eastwest;whiteSpace=wrap;html=1;" vertex="1" parent="7Fl_ec4HVdn68NrH_je4-29">
          <mxGeometry y="26" width="160" height="54" as="geometry" />
        </mxCell>
      </root>
    </mxGraphModel>
  </diagram>
</mxfile>
